<svg width="28" height="30" viewBox="0 0 28 30" fill="none" xmlns="http://www.w3.org/2000/svg">
<g id="Vector">
<path d="M14.2933 1.66675H13.7067C12.9994 1.66675 12.3211 1.9477 11.8211 2.4478C11.321 2.94789 11.04 3.62617 11.04 4.33341V4.57341C11.0395 5.04105 10.9161 5.50033 10.6821 5.9052C10.448 6.31006 10.1117 6.64626 9.70667 6.88008L9.13334 7.21341C8.72795 7.44746 8.2681 7.57068 7.8 7.57068C7.3319 7.57068 6.87205 7.44746 6.46667 7.21341L6.26667 7.10675C5.65476 6.75377 4.92779 6.65801 4.24534 6.84049C3.56289 7.02298 2.98074 7.4688 2.62667 8.08008L2.33334 8.58675C1.98035 9.19866 1.88459 9.92563 2.06708 10.6081C2.24957 11.2905 2.69538 11.8727 3.30667 12.2267L3.50667 12.3601C3.9097 12.5928 4.24483 12.9269 4.47874 13.3292C4.71265 13.7315 4.83719 14.188 4.84 14.6534V15.3334C4.84187 15.8033 4.71954 16.2654 4.48539 16.6728C4.25125 17.0802 3.91361 17.4185 3.50667 17.6534L3.30667 17.7734C2.69538 18.1275 2.24957 18.7096 2.06708 19.3921C1.88459 20.0745 1.98035 20.8015 2.33334 21.4134L2.62667 21.9201C2.98074 22.5314 3.56289 22.9772 4.24534 23.1597C4.92779 23.3422 5.65476 23.2464 6.26667 22.8934L6.46667 22.7867C6.87205 22.5527 7.3319 22.4295 7.8 22.4295C8.2681 22.4295 8.72795 22.5527 9.13334 22.7867L9.70667 23.1201C10.1117 23.3539 10.448 23.6901 10.6821 24.095C10.9161 24.4998 11.0395 24.9591 11.04 25.4267V25.6667C11.04 26.374 11.321 27.0523 11.8211 27.5524C12.3211 28.0525 12.9994 28.3334 13.7067 28.3334H14.2933C15.0006 28.3334 15.6789 28.0525 16.179 27.5524C16.6791 27.0523 16.96 26.374 16.96 25.6667V25.4267C16.9605 24.9591 17.0839 24.4998 17.318 24.095C17.552 23.6901 17.8884 23.3539 18.2933 23.1201L18.8667 22.7867C19.2721 22.5527 19.7319 22.4295 20.2 22.4295C20.6681 22.4295 21.128 22.5527 21.5333 22.7867L21.7333 22.8934C22.3452 23.2464 23.0722 23.3422 23.7547 23.1597C24.4371 22.9772 25.0193 22.5314 25.3733 21.9201L25.6667 21.4001C26.0197 20.7882 26.1154 20.0612 25.9329 19.3788C25.7504 18.6963 25.3046 18.1141 24.6933 17.7601L24.4933 17.6534C24.0864 17.4185 23.7488 17.0802 23.5146 16.6728C23.2805 16.2654 23.1581 15.8033 23.16 15.3334V14.6667C23.1581 14.1969 23.2805 13.7348 23.5146 13.3274C23.7488 12.92 24.0864 12.5817 24.4933 12.3467L24.6933 12.2267C25.3046 11.8727 25.7504 11.2905 25.9329 10.6081C26.1154 9.92563 26.0197 9.19866 25.6667 8.58675L25.3733 8.08008C25.0193 7.4688 24.4371 7.02298 23.7547 6.84049C23.0722 6.65801 22.3452 6.75377 21.7333 7.10675L21.5333 7.21341C21.128 7.44746 20.6681 7.57068 20.2 7.57068C19.7319 7.57068 19.2721 7.44746 18.8667 7.21341L18.2933 6.88008C17.8884 6.64626 17.552 6.31006 17.318 5.9052C17.0839 5.50033 16.9605 5.04105 16.96 4.57341V4.33341C16.96 3.62617 16.6791 2.94789 16.179 2.4478C15.6789 1.9477 15.0006 1.66675 14.2933 1.66675Z" stroke="#A1A1AA" stroke-width="3" stroke-linecap="round" stroke-linejoin="round"/>
<path d="M14 19.0001C16.2091 19.0001 18 17.2092 18 15.0001C18 12.7909 16.2091 11.0001 14 11.0001C11.7909 11.0001 10 12.7909 10 15.0001C10 17.2092 11.7909 19.0001 14 19.0001Z" stroke="#A1A1AA" stroke-width="3" stroke-linecap="round" stroke-linejoin="round"/>
</g>
</svg>
