<svg width="19" height="20" viewBox="0 0 19 20" fill="none" xmlns="http://www.w3.org/2000/svg">
<path id="Icon" d="M8.39052 1.05727C8.91122 0.536573 9.75544 0.536573 10.2761 1.05727L18.2761 9.05727C18.7968 9.57797 18.7968 10.4222 18.2761 10.9429L10.2761 18.9429C9.75544 19.4636 8.91122 19.4636 8.39052 18.9429C7.86982 18.4222 7.86982 17.578 8.39052 17.0573L15.4477 10.0001L8.39052 2.94289C7.86983 2.42219 7.86983 1.57797 8.39052 1.05727ZM0.390526 1.05727C0.911225 0.536573 1.75544 0.536573 2.27614 1.05727L10.2761 9.05727C10.5262 9.30732 10.6667 9.64646 10.6667 10.0001C10.6667 10.3537 10.5262 10.6928 10.2761 10.9429L2.27614 18.9429C1.75544 19.4636 0.911223 19.4636 0.390524 18.9429C-0.130175 18.4222 -0.130175 17.578 0.390524 17.0573L7.44772 10.0001L0.390525 2.94289C-0.130174 2.42219 -0.130174 1.57797 0.390526 1.05727Z" fill="#A1A1AA"/>
</svg>
